<svg id="return" xmlns="http://www.w3.org/2000/svg" width="19" height="18" viewBox="0 0 19 18">
  <g id="Grupo_38593" data-name="Grupo 38593">
    <g id="Grupo_38592" data-name="Grupo 38592">
      <path id="Trazado_54022" data-name="Trazado 54022" d="M18.443,0H.557A.543.543,0,0,0,0,.527V17.473A.543.543,0,0,0,.557,18H18.443A.543.543,0,0,0,19,17.473V.527A.543.543,0,0,0,18.443,0ZM8.268,1.055h2.464V4.519H8.268V1.055Zm9.619,15.891H1.113V1.055H7.155V5.046a.543.543,0,0,0,.557.527h3.577a.543.543,0,0,0,.557-.527V1.055h6.041Z"/>
    </g>
  </g>
  <g id="Grupo_38595" data-name="Grupo 38595" transform="translate(3.889 7.625)">
    <g id="Grupo_38594" data-name="Grupo 38594">
      <path id="Trazado_54023" data-name="Trazado 54023" d="M105.4,218.6H98.2l.794-.794a.527.527,0,0,0-.746-.746l-1.695,1.694a.527.527,0,0,0,0,.746l1.694,1.695a.527.527,0,1,0,.746-.746l-.794-.794h7.2a1.167,1.167,0,0,1,0,2.334h-3.389a.527.527,0,1,0,0,1.055H105.4a2.222,2.222,0,0,0,0-4.444Z" transform="translate(-96.4 -216.901)"/>
    </g>
  </g>
</svg>
