<svg id="Grupo_38589" data-name="Grupo 38589" xmlns="http://www.w3.org/2000/svg" xmlns:xlink="http://www.w3.org/1999/xlink" width="21.419" height="21.419" viewBox="0 0 21.419 21.419">
  <defs>
    <clipPath id="clip-path">
      <path id="Icon-Message-Square" d="M.9,18a.878.878,0,0,1-.344-.068A.9.9,0,0,1,0,17.1V2.7A2.7,2.7,0,0,1,2.7,0H15.3A2.7,2.7,0,0,1,18,2.7v9a2.7,2.7,0,0,1-2.7,2.7H4.873L1.537,17.737A.9.9,0,0,1,.9,18ZM2.7,1.8a.9.9,0,0,0-.9.9V14.928l2.064-2.064A.891.891,0,0,1,4.5,12.6H15.3a.9.9,0,0,0,.9-.9v-9a.9.9,0,0,0-.9-.9Z" transform="translate(-0.142 -0.003)" fill="#3e3e3e"/>
    </clipPath>
  </defs>
  <path id="Trazado_54016" data-name="Trazado 54016" d="M0,0H21.419V21.419H0Z" fill="none"/>
  <g id="Grupo_38588" data-name="Grupo 38588" transform="translate(2.142 1.589)">
    <g id="Grupo_38587" data-name="Grupo 38587" transform="translate(0 0)">
      <g id="clock" transform="translate(-0.142 -3.003)">
        <path id="Trazado_54017" data-name="Trazado 54017" d="M15.778,9.037h-.124a7.868,7.868,0,1,0-6.617,6.617v1.819a.527.527,0,0,0,.82.439l1.562-1.041h4.359A2.224,2.224,0,0,0,18,14.648V11.259A2.224,2.224,0,0,0,15.778,9.037ZM7.87,14.686a6.811,6.811,0,1,1,6.716-5.648H11.259a2.221,2.221,0,0,0-2.222,2.222v3.327A6.87,6.87,0,0,1,7.87,14.686Zm9.075-.037a1.169,1.169,0,0,1-1.167,1.167H11.259a.527.527,0,0,0-.293.089l-.875.583V11.259a1.166,1.166,0,0,1,1.167-1.167h4.519a1.169,1.169,0,0,1,1.167,1.167Zm0,0" transform="translate(0 2)" fill="#3e3e3e"/>
        <path id="Trazado_54018" data-name="Trazado 54018" d="M325.249,321.332h-3.389a.527.527,0,0,0,0,1.055h3.389a.527.527,0,0,0,0-1.055Zm0,0" transform="translate(-310.035 -308.035)" fill="#3e3e3e"/>
        <path id="Trazado_54019" data-name="Trazado 54019" d="M323.554,385.6h-1.695a.527.527,0,0,0,0,1.055h1.695a.527.527,0,0,0,0-1.055Zm0,0" transform="translate(-310.035 -370.045)" fill="#3e3e3e"/>
        <path id="Trazado_54020" data-name="Trazado 54020" d="M116.385,64.266a.527.527,0,0,0-.527.527v4.556H113a.527.527,0,0,0,0,1.055h3.389a.527.527,0,0,0,.527-.527V64.793A.527.527,0,0,0,116.385,64.266Zm0,0" transform="translate(-108.515 -60.006)" fill="#3e3e3e"/>
      </g>
    </g>
  </g>
</svg>
