<svg xmlns="http://www.w3.org/2000/svg" width="24.948" height="24.948" viewBox="0 0 24.948 24.948">
  <path id="web-browser" d="M20.914,3.59A12.25,12.25,0,1,0,12.252,24.5,12.269,12.269,0,0,0,20.914,3.59Zm-8.662,19A10.348,10.348,0,0,1,1.916,12.252c.568-13.712,20.106-13.708,20.672,0A10.348,10.348,0,0,1,12.252,22.588ZM13.4,12.252a1.2,1.2,0,1,1-1.2-1.2A1.2,1.2,0,0,1,13.4,12.252Zm-.563,2.861a.957.957,0,0,1,0,1.353,6.436,6.436,0,0,1-3.3,1.766l-.013,0-2.457.457a.96.96,0,0,1-1.116-1.116l.457-2.457,0-.013a6.587,6.587,0,0,1,1.766-3.339A.957.957,0,0,1,9.531,13.12,4.652,4.652,0,0,0,8.29,15.474l-.2,1.08,1.08-.2a4.528,4.528,0,0,0,2.316-1.241.957.957,0,0,1,1.353,0Zm2.955-2.191a.959.959,0,0,1-.674-1.636A4.3,4.3,0,0,0,16.278,9.07l.184-.983-1,.185a4.359,4.359,0,0,0-2.2,1.214.957.957,0,0,1-1.349-1.358A6.263,6.263,0,0,1,15.1,6.392l.013,0,2.377-.439A.957.957,0,0,1,18.6,7.068l-.442,2.36,0,.013a6.206,6.206,0,0,1-1.688,3.2.954.954,0,0,1-.674.278Z" transform="translate(0.15 0.293)" fill="#9051fd" stroke="#9051fd" stroke-width="0.3"/>
</svg>
