<svg id="Grupo_36250" data-name="Grupo 36250" xmlns="http://www.w3.org/2000/svg" width="26.415" height="26.415" viewBox="0 0 26.415 26.415">
  <path id="Trazado_43850" data-name="Trazado 43850" d="M5.778,26.415a.824.824,0,0,1-.825-.825V21.462H2.476A2.479,2.479,0,0,1,0,18.986V2.476A2.479,2.479,0,0,1,2.476,0H23.939a2.479,2.479,0,0,1,2.476,2.476V18.986a2.479,2.479,0,0,1-2.476,2.476H12.657L6.274,26.25A.829.829,0,0,1,5.778,26.415ZM2.476,1.651a.826.826,0,0,0-.825.825V18.986a.826.826,0,0,0,.825.825h3.3a.826.826,0,0,1,.825.825v3.3l5.283-3.962a.829.829,0,0,1,.5-.165H23.939a.826.826,0,0,0,.825-.825V2.476a.826.826,0,0,0-.825-.825Z" fill="#9f9f9f"/>
  <path id="Trazado_43851" data-name="Trazado 43851" d="M13.811,14.121a1.988,1.988,0,0,1-1.986-1.986V8.824h-.662a.662.662,0,1,1,0-1.324h.662a1.326,1.326,0,0,1,1.324,1.324v3.311a.662.662,0,0,0,.662.662h.662a.662.662,0,1,1,0,1.324Z" transform="translate(0.189 1.165)" fill="#9f9f9f"/>
  <path id="Trazado_43852" data-name="Trazado 43852" d="M12.409,6.067a1.157,1.157,0,0,1-.135-2.306.738.738,0,0,1,.135-.011l.075.005a.466.466,0,0,1,.055.006,1.161,1.161,0,0,1,1.018,1.013.8.8,0,0,1,0,.268A1.154,1.154,0,0,1,12.409,6.067Z" transform="translate(0.557 1.566)" fill="#9f9f9f"/>
</svg>
