<svg xmlns="http://www.w3.org/2000/svg" width="24.337" height="24.326" viewBox="0 0 24.337 24.326">
  <path id="review" d="M15.48,15.944a2.6,2.6,0,0,1-1.207-.3L12.289,14.61a.727.727,0,0,0-.673,0L9.633,15.646a2.59,2.59,0,0,1-3.759-2.723l.379-2.194a.7.7,0,0,0-.2-.622L4.443,8.553a2.578,2.578,0,0,1,1.435-4.4L8.1,3.828a.716.716,0,0,0,.541-.388l.992-2a2.6,2.6,0,0,1,4.647,0l.992,2a.717.717,0,0,0,.541.389l2.218.32a2.578,2.578,0,0,1,1.435,4.4l-1.605,1.554a.7.7,0,0,0-.2.622l.379,2.194a2.561,2.561,0,0,1-1.022,2.519,2.59,2.59,0,0,1-1.53.5Zm-3.527-3.291a2.6,2.6,0,0,1,1.2.3l1.984,1.036a.707.707,0,0,0,.764-.057.685.685,0,0,0,.28-.685l-.379-2.194a2.573,2.573,0,0,1,.748-2.288l1.605-1.554a.681.681,0,0,0,.181-.717A.7.7,0,0,0,17.76,6l-2.218-.32a2.592,2.592,0,0,1-1.952-1.41l-.992-2a.723.723,0,0,0-1.289,0l-.992,2a2.592,2.592,0,0,1-1.952,1.41L6.146,6a.7.7,0,0,0-.58.485.681.681,0,0,0,.181.717L7.352,8.76A2.573,2.573,0,0,1,8.1,11.048l-.379,2.194a.684.684,0,0,0,.28.685.707.707,0,0,0,.764.057l1.984-1.036a2.6,2.6,0,0,1,1.2-.3ZM10.469,1.861h0ZM8.218,24.007a2.052,2.052,0,0,1-.951-.235L5.94,23.079a.176.176,0,0,0-.162,0l-1.327.693a2.043,2.043,0,0,1-2.964-2.149l.253-1.467a.158.158,0,0,0-.047-.14L.621,18.976A2.035,2.035,0,0,1,1.752,15.5l1.483-.214a.173.173,0,0,0,.1-.049.937.937,0,1,1,1.333,1.318,2.059,2.059,0,0,1-1.164.587l-1.484.214a.156.156,0,0,0-.137.112.146.146,0,0,0,.041.161L3,18.668a2.031,2.031,0,0,1,.59,1.806l-.253,1.467A.146.146,0,0,0,3.4,22.1a.164.164,0,0,0,.184.014l1.327-.693a2.051,2.051,0,0,1,1.9,0l1.327.693a.164.164,0,0,0,.184-.014.146.146,0,0,0,.064-.155L8.13,20.475a2.031,2.031,0,0,1,.59-1.806l1.073-1.039a.937.937,0,0,1,1.3,1.347l-1.073,1.039a.158.158,0,0,0-.047.14l.253,1.467a2.021,2.021,0,0,1-.807,1.988,2.043,2.043,0,0,1-1.206.4Zm13.487-.4a2.021,2.021,0,0,0,.807-1.988l-.253-1.467a.158.158,0,0,1,.047-.14l1.073-1.039A2.035,2.035,0,0,0,22.247,15.5l-1.483-.214a.173.173,0,0,1-.1-.049.937.937,0,1,0-1.333,1.318,2.059,2.059,0,0,0,1.164.587l1.483.214a.156.156,0,0,1,.137.112.146.146,0,0,1-.041.161L21,18.668a2.031,2.031,0,0,0-.59,1.806l.253,1.467a.146.146,0,0,1-.064.155.164.164,0,0,1-.184.014l-1.327-.693a2.051,2.051,0,0,0-1.9,0l-1.327.693a.164.164,0,0,1-.184-.014.146.146,0,0,1-.064-.155l.253-1.467a2.031,2.031,0,0,0-.59-1.806l-1.073-1.039a.937.937,0,0,0-1.3,1.347l1.073,1.039a.158.158,0,0,1,.047.14l-.253,1.467a2.043,2.043,0,0,0,2.964,2.149l1.327-.693a.176.176,0,0,1,.162,0l1.327.693a2.038,2.038,0,0,0,2.157-.161Z" transform="translate(0.169 0.143)" fill="#3b4859" stroke="#3a4859" stroke-width="0.3"/>
</svg>
