<svg id="shop_3_" data-name="shop (3)" xmlns="http://www.w3.org/2000/svg" width="20.944" height="18.287" viewBox="0 0 20.944 18.287">
  <g id="Grupo_8415" data-name="Grupo 8415">
    <path id="Trazado_6008" data-name="Trazado 6008" d="M252.458,263.75h-2.846a1.414,1.414,0,0,0-1.412,1.412v2.183a1.414,1.414,0,0,0,1.412,1.412h2.846a1.414,1.414,0,0,0,1.412-1.412v-2.183A1.414,1.414,0,0,0,252.458,263.75Zm.385,3.595a.386.386,0,0,1-.385.385h-2.846a.386.386,0,0,1-.385-.385v-2.183a.386.386,0,0,1,.385-.385h2.846a.386.386,0,0,1,.385.385Z" transform="translate(-237.578 -253.791)" fill="#3e3e3e"/>
    <path id="Trazado_6009" data-name="Trazado 6009" d="M20.944,37.041a.477.477,0,0,0-.068-.252L17.76,31.311a.516.516,0,0,0-.445-.261H3.625a.508.508,0,0,0-.445.261L.068,36.789A.519.519,0,0,0,0,37.041a3,3,0,0,0,1.8,2.747v9.034a.515.515,0,0,0,.514.514H18.629a.515.515,0,0,0,.514-.514v-8.97a.226.226,0,0,0,0-.056A3.013,3.013,0,0,0,20.944,37.041Zm-17.02-4.96H17.016l2.435,4.284H1.494Zm10.981,5.307a1.974,1.974,0,0,1-3.886,0Zm-4.977,0a1.976,1.976,0,0,1-3.89,0Zm-8.867,0h3.89a1.976,1.976,0,0,1-3.89,0ZM8.628,48.31H5.675V42.767a.731.731,0,0,1,.732-.732H7.9a.731.731,0,0,1,.732.732V48.31Zm9.488,0H9.655V42.767A1.762,1.762,0,0,0,7.9,41.009H6.4a1.762,1.762,0,0,0-1.759,1.759v5.546H2.825V40.041c.06,0,.12,0,.18,0a3,3,0,0,0,2.491-1.327,3,3,0,0,0,4.981,0,2.993,2.993,0,0,0,4.973,0,3,3,0,0,0,2.491,1.327c.06,0,.116,0,.175,0V48.31Zm-.175-9.291A1.973,1.973,0,0,1,16,37.392h3.89A1.985,1.985,0,0,1,17.94,39.019Z" transform="translate(0 -31.05)" fill="#3e3e3e"/>
  </g>
</svg>
