<svg id="Grupo_14323" data-name="Grupo 14323" xmlns="http://www.w3.org/2000/svg" width="17.851" height="18.527" viewBox="0 0 17.851 18.527">
  <path id="Sustracción_1" data-name="Sustracción 1" d="M16.2,14.873H1.649A1.689,1.689,0,0,1,0,13.149V1.723A1.689,1.689,0,0,1,1.649,0H16.2a1.689,1.689,0,0,1,1.649,1.723V13.149A1.689,1.689,0,0,1,16.2,14.873ZM2.171,1.278a.706.706,0,0,0-.706.706V12.636a.706.706,0,0,0,.706.706H15.68a.706.706,0,0,0,.706-.706V1.984a.706.706,0,0,0-.706-.706Z" transform="translate(0 3.654)" fill="#3e3e3e"/>
  <path id="Rectangle" d="M0,.836A.823.823,0,0,1,.822.013L4.03,0a.86.86,0,0,1,.86.861h0a.782.782,0,0,1-.768.769L.86,1.643A.86.86,0,0,1,0,.782Z" transform="matrix(0.719, 0.695, -0.695, 0.719, 6.092, 0)" fill="#3e3e3e"/>
  <path id="Rectangle_Copy" data-name="Rectangle Copy" d="M0,.853A.849.849,0,0,1,.845,0L4.086.012A.817.817,0,0,1,4.9.832h0a.815.815,0,0,1-.8.806L.813,1.626A.817.817,0,0,1,0,.806Z" transform="translate(13.258 2.243) rotate(150)" fill="#3e3e3e"/>
  <path id="Path" d="M5.728,1.537H.764A.769.769,0,0,1,.764,0H5.728a.769.769,0,0,1,0,1.537Z" transform="translate(4.057 11.589)" fill="#3e3e3e"/>
  <path id="Path-2" data-name="Path" d="M6.073,1.537H.607A.7.7,0,0,1,0,.769.7.7,0,0,1,.607,0H6.073A.7.7,0,0,1,6.68.769.7.7,0,0,1,6.073,1.537Z" transform="translate(7.302 9.049)" fill="#3e3e3e"/>
</svg>
